<svg width="1417" height="267" viewBox="0 0 1417 267" fill="none" xmlns="http://www.w3.org/2000/svg">
<path d="M264.428 140.053L264.428 248.053C264.428 256.337 257.712 263.053 249.428 263.053L124.428 263.053C116.143 263.053 109.428 256.337 109.428 248.053L109.428 140.053C109.428 131.769 116.143 125.053 124.428 125.053L249.428 125.053C257.712 125.053 264.428 131.769 264.428 140.053Z" fill="#9BD7FB"/>
<path d="M124.218 262.934C132.614 263.014 139.441 256.187 139.361 247.791L138.334 140.494C138.206 127.2 122.128 120.63 112.728 130.031L6.45753 236.3C-2.94307 245.701 3.62673 261.779 16.9205 261.906L124.218 262.934Z" fill="#9BD7FB"/>
<path d="M202.38 86.816C202.46 78.42 195.633 71.593 187.237 71.6733L79.9398 72.7006C66.6458 72.8279 60.0768 88.906 69.4768 98.307L175.747 204.576C185.148 213.977 201.226 207.407 201.353 194.113L202.38 86.816Z" fill="#65A8F3"/>
<path d="M197.048 189.107L150.718 91.5497C147.164 84.0664 138.217 80.881 130.734 84.4348L22.6686 135.755C15.1853 139.309 11.9999 148.256 15.5537 155.74L61.8841 253.297C65.438 260.781 74.3853 263.966 81.8686 260.412L189.934 209.092C197.417 205.538 200.602 196.591 197.048 189.107Z" fill="#65A8F3"/>
<path d="M123 0H15C6.71573 0 0 6.71573 0 15V140C0 148.284 6.71573 155 15 155H123C131.284 155 138 148.284 138 140V15C138 6.71573 131.284 0 123 0Z" fill="#1E51DB"/>
<path d="M75.4473 230H18.4473C15.6858 230 13.4473 232.239 13.4473 235V257C13.4473 259.761 15.6858 262 18.4473 262H75.4473C78.2087 262 80.4473 259.761 80.4473 257V235C80.4473 232.239 78.2087 230 75.4473 230Z" fill="#65A8F3"/>
<path d="M0.12082 140.21C0.0404201 131.814 6.86742 124.987 15.2634 125.067L122.56 126.094C135.854 126.221 142.424 142.299 133.023 151.7L26.7544 257.97C17.3534 267.37 1.27532 260.801 1.14802 247.507L0.12082 140.21Z" fill="#1E51DB"/>
<path d="M348 58.2V175.8H395V209H308.8V58.2H348ZM488.845 142.8C487.645 137.733 485.179 133.667 481.445 130.6C477.712 127.533 473.179 126 467.845 126C462.245 126 457.645 127.467 454.045 130.4C450.579 133.333 448.379 137.467 447.445 142.8H488.845ZM446.445 163.8C446.445 179.4 453.779 187.2 468.445 187.2C476.312 187.2 482.245 184 486.245 177.6H521.245C514.179 201.067 496.512 212.8 468.245 212.8C459.579 212.8 451.645 211.533 444.445 209C437.245 206.333 431.045 202.6 425.845 197.8C420.779 193 416.845 187.267 414.045 180.6C411.245 173.933 409.845 166.467 409.845 158.2C409.845 149.667 411.179 142 413.845 135.2C416.512 128.267 420.312 122.4 425.245 117.6C430.179 112.8 436.112 109.133 443.045 106.6C450.112 103.933 458.045 102.6 466.845 102.6C475.512 102.6 483.312 103.933 490.245 106.6C497.179 109.133 503.045 112.867 507.845 117.8C512.645 122.733 516.312 128.8 518.845 136C521.379 143.067 522.645 151.067 522.645 160V163.8H446.445ZM545.338 106.4H581.538V119.4C586.471 113.4 591.471 109.4 596.538 107.4C601.604 105.267 607.538 104.2 614.338 104.2C621.538 104.2 627.671 105.4 632.738 107.8C637.938 110.067 642.338 113.333 645.937 117.6C648.871 121.067 650.871 124.933 651.938 129.2C653.004 133.467 653.538 138.333 653.538 143.8V209H617.338V157.2C617.338 152.133 616.938 148.067 616.138 145C615.471 141.8 614.204 139.267 612.338 137.4C610.738 135.8 608.938 134.667 606.938 134C604.938 133.333 602.804 133 600.538 133C594.404 133 589.671 134.867 586.338 138.6C583.138 142.2 581.538 147.4 581.538 154.2V209H545.338V106.4ZM713.75 157.4C713.75 160.733 714.35 163.867 715.55 166.8C716.75 169.6 718.35 172.067 720.35 174.2C722.483 176.333 724.95 178 727.75 179.2C730.683 180.4 733.817 181 737.15 181C740.35 181 743.35 180.4 746.15 179.2C749.083 178 751.55 176.333 753.55 174.2C755.683 172.067 757.35 169.6 758.55 166.8C759.883 164 760.55 161 760.55 157.8C760.55 154.6 759.883 151.6 758.55 148.8C757.35 145.867 755.683 143.333 753.55 141.2C751.55 139.067 749.083 137.4 746.15 136.2C743.35 135 740.35 134.4 737.15 134.4C733.95 134.4 730.883 135 727.95 136.2C725.15 137.4 722.683 139.067 720.55 141.2C718.55 143.333 716.883 145.8 715.55 148.6C714.35 151.267 713.75 154.2 713.75 157.4ZM759.35 43H795.75V209H759.35V197.6C751.617 207.333 741.15 212.2 727.95 212.2C720.483 212.2 713.617 210.8 707.35 208C701.083 205.2 695.617 201.333 690.95 196.4C686.283 191.467 682.617 185.667 679.95 179C677.417 172.333 676.15 165.133 676.15 157.4C676.15 150.067 677.35 143.133 679.75 136.6C682.283 129.933 685.817 124.133 690.35 119.2C694.883 114.267 700.283 110.4 706.55 107.6C712.95 104.667 719.95 103.2 727.55 103.2C740.35 103.2 750.95 107.667 759.35 116.6V43ZM822.384 106.4H858.584V123.2C862.451 117.067 867.184 112.4 872.784 109.2C878.384 105.867 884.918 104.2 892.384 104.2C893.318 104.2 894.318 104.2 895.384 104.2C896.584 104.2 897.918 104.333 899.384 104.6V139.2C894.584 136.8 889.384 135.6 883.784 135.6C875.384 135.6 869.051 138.133 864.784 143.2C860.651 148.133 858.584 155.4 858.584 165V209H822.384V106.4ZM952.53 157.2C952.53 160.667 953.13 163.867 954.33 166.8C955.663 169.6 957.33 172.067 959.33 174.2C961.463 176.333 963.93 178 966.73 179.2C969.663 180.4 972.73 181 975.93 181C979.13 181 982.13 180.4 984.93 179.2C987.863 178 990.33 176.333 992.33 174.2C994.463 172.067 996.13 169.6 997.33 166.8C998.663 163.867 999.33 160.733 999.33 157.4C999.33 154.2 998.663 151.2 997.33 148.4C996.13 145.467 994.463 142.933 992.33 140.8C990.33 138.667 987.863 137 984.93 135.8C982.13 134.6 979.13 134 975.93 134C972.73 134 969.663 134.6 966.73 135.8C963.93 137 961.463 138.667 959.33 140.8C957.33 142.933 955.663 145.4 954.33 148.2C953.13 151 952.53 154 952.53 157.2ZM914.33 156.8C914.33 149.2 915.863 142.133 918.93 135.6C921.996 128.933 926.263 123.2 931.73 118.4C937.196 113.467 943.663 109.6 951.13 106.8C958.73 104 966.996 102.6 975.93 102.6C984.73 102.6 992.863 104 1000.33 106.8C1007.93 109.467 1014.46 113.267 1019.93 118.2C1025.53 123 1029.86 128.8 1032.93 135.6C1036 142.267 1037.53 149.667 1037.53 157.8C1037.53 165.933 1035.93 173.4 1032.73 180.2C1029.66 186.867 1025.4 192.667 1019.93 197.6C1014.46 202.4 1007.86 206.133 1000.13 208.8C992.53 211.467 984.263 212.8 975.33 212.8C966.53 212.8 958.396 211.467 950.93 208.8C943.463 206.133 936.996 202.333 931.53 197.4C926.196 192.467 921.996 186.6 918.93 179.8C915.863 172.867 914.33 165.2 914.33 156.8ZM1058.57 189.8C1058.57 186.6 1059.17 183.6 1060.37 180.8C1061.57 177.867 1063.24 175.333 1065.37 173.2C1067.5 171.067 1069.97 169.4 1072.77 168.2C1075.7 167 1078.77 166.4 1081.97 166.4C1085.17 166.4 1088.17 167 1090.97 168.2C1093.9 169.4 1096.44 171.067 1098.57 173.2C1100.7 175.333 1102.37 177.867 1103.57 180.8C1104.77 183.6 1105.37 186.6 1105.37 189.8C1105.37 193 1104.77 196.067 1103.57 199C1102.37 201.8 1100.7 204.267 1098.57 206.4C1096.44 208.533 1093.9 210.2 1090.97 211.4C1088.17 212.6 1085.17 213.2 1081.97 213.2C1078.77 213.2 1075.7 212.6 1072.77 211.4C1069.97 210.2 1067.5 208.533 1065.37 206.4C1063.24 204.267 1061.57 201.8 1060.37 199C1059.17 196.067 1058.57 193 1058.57 189.8ZM1215.74 153L1198.14 102.8L1180.54 153H1215.74ZM1226.14 182.8H1170.14L1161.14 209H1119.34L1176.74 58.2H1219.54L1276.94 209H1235.14L1226.14 182.8ZM1335.29 58.2V209H1296.09V58.2H1335.29Z" fill="black"/>
</svg>
