<svg width="1200" height="630" viewBox="0 0 1200 630" fill="none" xmlns="http://www.w3.org/2000/svg">
  <!-- Background -->
  <rect width="1200" height="630" fill="url(#gradient)"/>
  
  <!-- Gradient Definition -->
  <defs>
    <linearGradient id="gradient" x1="0%" y1="0%" x2="100%" y2="100%">
      <stop offset="0%" style="stop-color:#1E51DB;stop-opacity:1" />
      <stop offset="50%" style="stop-color:#65A8F3;stop-opacity:1" />
      <stop offset="100%" style="stop-color:#9BD7FB;stop-opacity:1" />
    </linearGradient>
  </defs>
  
  <!-- Logo positioned in center -->
  <g transform="translate(150, 180) scale(1.5)">
    <!-- Graphic elements -->
    <path d="M264.428 140.053L264.428 248.053C264.428 256.337 257.712 263.053 249.428 263.053L124.428 263.053C116.143 263.053 109.428 256.337 109.428 248.053L109.428 140.053C109.428 131.769 116.143 125.053 124.428 125.053L249.428 125.053C257.712 125.053 264.428 131.769 264.428 140.053Z" fill="#9BD7FB"/>
    <path d="M124.218 262.934C132.614 263.014 139.441 256.187 139.361 247.791L138.334 140.494C138.206 127.2 122.128 120.63 112.728 130.031L6.45753 236.3C-2.94307 245.701 3.62673 261.779 16.9205 261.906L124.218 262.934Z" fill="#9BD7FB"/>
    <path d="M202.38 86.816C202.46 78.42 195.633 71.593 187.237 71.6733L79.9398 72.7006C66.6458 72.8279 60.0768 88.906 69.4768 98.307L175.747 204.576C185.148 213.977 201.226 207.407 201.353 194.113L202.38 86.816Z" fill="#65A8F3"/>
    <path d="M197.048 189.107L150.718 91.5497C147.164 84.0664 138.217 80.881 130.734 84.4348L22.6686 135.755C15.1853 139.309 11.9999 148.256 15.5537 155.74L61.8841 253.297C65.438 260.781 74.3853 263.966 81.8686 260.412L189.934 209.092C197.417 205.538 200.602 196.591 197.048 189.107Z" fill="#65A8F3"/>
    <path d="M123 0H15C6.71573 0 0 6.71573 0 15V140C0 148.284 6.71573 155 15 155H123C131.284 155 138 148.284 138 140V15C138 6.71573 131.284 0 123 0Z" fill="#1E51DB"/>
    <path d="M75.4473 230H18.4473C15.6858 230 13.4473 232.239 13.4473 235V257C13.4473 259.761 15.6858 262 18.4473 262H75.4473C78.2087 262 80.4473 259.761 80.4473 257V235C80.4473 232.239 78.2087 230 75.4473 230Z" fill="#65A8F3"/>
    <path d="M0.12082 140.21C0.0404201 131.814 6.86742 124.987 15.2634 125.067L122.56 126.094C135.854 126.221 142.424 142.299 133.023 151.7L26.7544 257.97C17.3534 267.37 1.27532 260.801 1.14802 247.507L0.12082 140.21Z" fill="#1E51DB"/>
    
    <!-- Text "Lendro.AI" -->
    <text x="320" y="140" fill="white" font-family="-apple-system, BlinkMacSystemFont, 'Segoe UI', Roboto, sans-serif" font-size="72" font-weight="bold">Lendro.AI</text>
  </g>
  
  <!-- Tagline -->
  <text x="600" y="480" fill="white" font-family="-apple-system, BlinkMacSystemFont, 'Segoe UI', Roboto, sans-serif" font-size="32" text-anchor="middle" opacity="0.9">Autonomous AI Agents for Lending</text>
</svg> 